<?xml version="1.0" ?><svg id="Layer_1" style="enable-background:new 0 0 128 128;" version="1.1" viewBox="0 0 128 128" xml:space="preserve" xmlns="http://www.w3.org/2000/svg" xmlns:xlink="http://www.w3.org/1999/xlink"><style type="text/css">
	.st0{fill-rule:evenodd;clip-rule:evenodd;fill:#7ACED7;}
	.st1{fill-rule:evenodd;clip-rule:evenodd;}
</style><g id="XMLID_1_"><path class="st0" d="M61.7,5.1C61.7,5.1,61.7,5.1,61.7,5.1c1.6-1.6,4.1-1.6,5.7,0c0,0,0,0,0,0l50.3,50.3   c1.6,1.6,1.6,4.1,0,5.7c-1.6,1.6-4.1,1.6-5.7,0L64.6,13.6L17.1,61c-1.6,1.6-4.1,1.6-5.7,0c-1.6-1.6-1.6-4.1,0-5.7L61.7,5.1   L61.7,5.1z M100.1,8c0-2.2-1.8-4-4-4c-2.2,0-4,1.8-4,4v16.2l8,8V8L100.1,8z M64.6,19.2L25.8,58v66H44V85.6h41.1v38.4h18.2V58   L64.6,19.2L64.6,19.2z M64.6,52.5c-6.8,0-12.3,5.5-12.3,12.3c0,6.8,5.5,12.3,12.3,12.3c6.8,0,12.3-5.5,12.3-12.3   C76.8,57.9,71.3,52.5,64.6,52.5z" id="XMLID_23_"/><path class="st1" d="M64.6,19.2L25.8,58v66H44V85.6h41.1v38.4h18.2V58L64.6,19.2L64.6,19.2z M48,123.9V89.6h33.1   v34.4H64.6H48L48,123.9z M64.6,52.5c6.8,0,12.3,5.5,12.3,12.3c0,6.8-5.5,12.3-12.3,12.3c-6.8,0-12.3-5.5-12.3-12.3   C52.3,57.9,57.8,52.5,64.6,52.5L64.6,52.5z M64.6,56.4c4.6,0,8.3,3.7,8.3,8.3S69.1,73,64.6,73c-4.6,0-8.3-3.7-8.3-8.3   S60,56.4,64.6,56.4L64.6,56.4z M21.8,62l-1.9,1.9c-3.1,3.1-8.2,3.1-11.3,0c-3.1-3.1-3.1-8.2,0-11.3L58.9,2.3   c3.1-3.1,8.2-3.1,11.3,0l17.9,17.9V8c0-4.4,3.6-8,8-8c4.4,0,8,3.6,8,8v28.1l16.4,16.4c3.1,3.1,3.1,8.2,0,11.3   c-3.1,3.1-8.2,3.1-11.3,0l-1.9-1.9v64c0,1.1-0.9,2-2,2H85.1H44H23.8c-1.1,0-2-0.9-2-2V62L21.8,62z M92.1,24.2V8c0-2.2,1.8-4,4-4   c2.2,0,4,1.8,4,4v24.2L92.1,24.2L92.1,24.2z M95.4,44.4l-7.2-7.2L64.6,13.6L17.1,61c-1.6,1.6-4.1,1.6-5.7,0c-1.6-1.6-1.6-4.1,0-5.7   L61.7,5.1c0,0,0,0,0,0c1.6-1.6,4.1-1.6,5.7,0c0,0,0,0,0,0l20.7,20.7l4,4l7.8,7.8l3,3l14.8,14.8c1.6,1.6,1.6,4.1,0,5.7   c-1.6,1.6-4.1,1.6-5.7,0L95.4,44.4z" id="XMLID_15_"/></g></svg>