<?xml version="1.0" encoding="utf-8"?>
<!-- Generator: Adobe Illustrator 20.0.0, SVG Export Plug-In . SVG Version: 6.00 Build 0)  -->
<svg version="1.1" id="Layer_1" xmlns="http://www.w3.org/2000/svg" xmlns:xlink="http://www.w3.org/1999/xlink" x="0px" y="0px"
	 viewBox="0 0 443.3 56.5" style="enable-background:new 0 0 443.3 56.5;" xml:space="preserve">
<style type="text/css">
	.st0{fill:#434343;}
	.st1{fill:url(#SVGID_1_);}
	.st2{fill:#7AC143;}
	.st3{fill:#79BD43;}
	.st4{fill:#939598;}
</style>
<g>
	<path class="st0" d="M424.2,45.1c-0.8-2-1.4-3.6-2-4.8c-0.6-1.2-1-2.1-1.3-2.5l0-0.1l-0.1,0c-0.2-0.2-0.4-0.4-0.6-0.7
		c-0.2-0.3-0.5-0.6-0.7-0.9c-0.5-0.6-1-1.1-1.4-1.6c-0.5-0.5-1.1-0.8-1.6-0.8h-13.6V27h17.6l-0.3-0.6c-0.4-0.7-0.9-1.4-1.6-2
		c-0.5-0.5-1-0.9-1.5-1.1c-0.4-0.2-0.8-0.4-1.1-0.5l-0.1,0l-0.1,0h-16.6v22.4h-10.4V15.6h28.8c1.5,0.1,2.9,0.3,4.3,0.8
		c1.4,0.5,2.8,1.1,4,1.8c1.2,0.7,2.4,1.5,3.5,2.4c1.1,0.9,2,1.8,2.7,2.6c1.4,1.7,2.5,3.3,3,4.7c0.5,1.2,0.9,2.5,1.1,3.7h-6.9
		l0.6,0.6c0.9,1,1.7,2,2.5,3.2c0.8,1.1,1.5,2.3,2,3.5c0.6,1.2,1,2.4,1.3,3.5c0.3,1,0.4,1.9,0.5,2.7H424.2z M337.7,45.1
		c0.1-1.8,0.7-3.9,1.8-6.2c1.2-2.4,2.7-4.7,4.6-6.6l0.6-0.6h-7c0.2-1.2,0.6-2.4,1.1-3.7c0.5-1.2,1.3-2.5,2.5-4V24l0.7-0.8
		c0.6-0.8,1.5-1.7,2.5-2.6c1-0.9,2.2-1.7,3.4-2.4c1.3-0.7,2.7-1.3,4.1-1.8c1.5-0.5,3-0.7,4.5-0.8h28.2v7.2H358l-0.1,0
		c-0.4,0.1-0.7,0.3-1.1,0.6c-0.4,0.2-0.8,0.6-1.4,1.1c-0.5,0.4-0.8,0.8-1,1.1c-0.2,0.3-0.4,0.6-0.6,1l-0.3,0.6h27.8v6.7h-23.8
		c-0.7,0-1.3,0.4-1.9,1.1c-0.5,0.7-1,1.5-1.5,2.5l-0.2,0.5h31.8v7.2H337.7z M287.4,45.1V15.6h28.8c1.4,0.1,2.9,0.3,4.3,0.8
		c1.4,0.5,2.8,1.1,4.1,1.8c1.3,0.7,2.5,1.5,3.6,2.4c1.1,0.9,2,1.8,2.6,2.6l0.7,0.8v-0.1c1.2,1.5,2,2.7,2.4,3.7
		c0.5,1.2,0.8,2.3,0.9,3.4l0,2.7h-33.4V27h17.9l-0.3-0.6c-0.5-1-1.3-1.8-2.2-2.4c-0.9-0.6-1.6-1-2.2-1.3l-0.1,0H298v22.4H287.4z
		 M274,45.1V15.6h9v29.6H274z M230.8,45.1c-0.6,0-1.3-0.2-2.1-0.6c-0.8-0.4-1.7-0.9-2.5-1.5c-0.8-0.6-1.6-1.3-2.3-2
		c-0.6-0.7-1.1-1.3-1.4-1.8V15.6h10.3V34c0.1,1,0.5,1.7,1,2.1c0.5,0.5,1.5,0.8,3,1.1l0.2,0l21.2-21.7h13.8l-28.2,29.6H230.8z
		 M118.3,45.1l-14-7.2h38.8c1.8,0,2.6-1.6,2.6-2.1V15.6h10.5v23.6c-0.5,0.9-3.2,5.5-8.6,6H118.3z M90.6,45.1L68,34.1v11H57.3V15.6
		h10.7v11.2l25.6-11.2h12.3l0.2,1.1L79.4,29.3l28.2,14.8l-0.3,1H90.6z M8.3,45.1l-6.3-7.3h36.9c0.5,0,0.6-0.6,0.7-0.9
		c0.1-0.4,0.2-0.8,0.2-1.1c0-0.3,0-0.9-0.1-1.7l0-0.4H5.3c0-2.3,0.4-4.5,1.2-6.6c0.8-2.2,1.9-4.2,3.3-5.9c1.4-1.7,3.2-3.1,5.2-4.1
		c2-1,4.3-1.5,6.8-1.5h31.4v7.2H21.9L21,23.5c-0.2,0.2-0.4,0.4-0.5,0.6l-0.4,0.5c-0.1,0.2-0.3,0.4-0.5,0.7c-0.3,0.6-0.4,0.9-0.4,1.2
		v0.2l0.1,0.2l0.2,0.2h27.5c0.9,0,1.8,0.3,2.6,0.9c0.8,0.7,1.5,1.4,2.1,2.4c0.6,0.9,1,1.9,1.3,2.9c0.3,1,0.5,1.9,0.5,2.6
		c0,1.1-0.2,2.2-0.7,3.3c-0.4,1.1-1.1,2.1-1.9,3c-0.8,0.9-1.7,1.6-2.8,2.2c-1,0.6-2.1,0.8-3.3,0.8H8.3z M123.7,33.7
		c-3-0.9-5.2-2-6.7-3.6c-1.1-1-2.1-2.1-3.1-3.4c-1-1.3-1.9-2.6-2.6-4c-0.8-1.3-1.4-2.7-1.9-4c-0.4-1.1-0.6-2.2-0.7-3.2H121
		c0.8,2,1.5,3.6,2,4.9c0.6,1.3,2.3,3.7,2.6,4c0.4,0.6,0.9,1.1,1.4,1.7c0.6,0.6,1.1,0.9,1.7,0.9h13.7v6.7H123.7z"/>
	<g>
		
			<linearGradient id="SVGID_1_" gradientUnits="userSpaceOnUse" x1="-402.1005" y1="-112.0089" x2="-402.1005" y2="-79.979" gradientTransform="matrix(1 0 0 1 620.0703 124.3456)">
			<stop  offset="0" style="stop-color:#DBDDDD"/>
			<stop  offset="0.4969" style="stop-color:#ECF8FE"/>
			<stop  offset="0.5023" style="stop-color:#DAE1DD"/>
			<stop  offset="1" style="stop-color:#FFFFFF"/>
		</linearGradient>
		<path class="st1" d="M422.9,43.3c-0.8-2-1.4-3.6-2-4.8c-0.6-1.2-1-2.1-1.3-2.5l0-0.1l0,0c-0.2-0.2-0.4-0.4-0.6-0.7
			c-0.2-0.3-0.5-0.6-0.7-0.9c-0.5-0.6-1-1.1-1.4-1.6c-0.5-0.5-1.1-0.8-1.6-0.8h-13.6v-6.7h17.6l-0.3-0.6c-0.4-0.7-0.9-1.4-1.6-2
			c-0.5-0.5-1-0.9-1.5-1.1c-0.4-0.2-0.8-0.4-1.1-0.5l-0.1,0l-0.1,0H398v22.4h-10.4V13.8h28.8c1.5,0.1,2.9,0.3,4.3,0.8
			c1.4,0.5,2.8,1.1,4,1.8c1.2,0.7,2.4,1.5,3.5,2.4c1.1,0.9,2,1.8,2.7,2.6c1.4,1.7,2.5,3.3,3,4.7c0.5,1.2,0.9,2.5,1.1,3.7h-6.9
			l0.6,0.6c0.9,1,1.7,2,2.5,3.2c0.8,1.1,1.5,2.3,2,3.5c0.6,1.2,1,2.4,1.3,3.5c0.3,1,0.4,1.9,0.5,2.7H422.9z M336.5,43.3
			c0.1-1.8,0.7-3.9,1.8-6.2c1.2-2.4,2.7-4.7,4.6-6.7l0.6-0.6h-7c0.2-1.2,0.6-2.4,1.1-3.7c0.5-1.2,1.3-2.5,2.5-4v0.1l0.7-0.8
			c0.6-0.8,1.5-1.7,2.5-2.6c1-0.9,2.2-1.7,3.5-2.4c1.3-0.7,2.7-1.3,4.1-1.8c1.5-0.5,3-0.7,4.5-0.8h28.2v7.2h-26.7l-0.1,0
			c-0.4,0.1-0.7,0.3-1.1,0.6c-0.4,0.3-0.8,0.6-1.4,1.1c-0.5,0.4-0.8,0.8-1,1.1c-0.2,0.3-0.4,0.6-0.5,1l-0.3,0.6h27.8v6.7h-23.8
			c-0.7,0-1.3,0.4-1.9,1.1c-0.5,0.7-1,1.5-1.5,2.5l-0.2,0.5h31.8v7.2H336.5z M286.1,43.3V13.8h28.8c1.4,0.1,2.9,0.3,4.3,0.8
			c1.4,0.5,2.8,1.1,4.1,1.8c1.3,0.7,2.5,1.5,3.6,2.4c1.1,0.9,2,1.8,2.6,2.6l0.7,0.8v-0.1c1.2,1.5,2,2.7,2.4,3.7
			c0.5,1.2,0.8,2.3,0.9,3.4l0,2.7h-33.4v-6.7h17.9l-0.3-0.6c-0.5-1-1.3-1.8-2.2-2.4c-0.9-0.6-1.6-1-2.2-1.3l-0.1,0h-16.6v22.4H286.1
			z M272.8,43.3V13.8h9v29.6H272.8z M229.6,43.3c-0.6,0-1.3-0.2-2.1-0.6c-0.8-0.4-1.7-0.9-2.5-1.5c-0.9-0.6-1.6-1.3-2.3-2
			c-0.6-0.7-1.1-1.3-1.4-1.8V13.8h10.3v18.4c0.1,1,0.5,1.7,1,2.1c0.5,0.5,1.5,0.8,3,1.1l0.2,0L257,13.8h13.8l-28.2,29.6H229.6z
			 M117.1,43.3l-14-7.2h38.8c1.8,0,2.6-1.6,2.6-2.1V13.8l10.5,0v23.6c-0.5,0.9-3.2,5.5-8.6,6H117.1z M89.4,43.3l-22.6-11v11H56V13.8
			h10.7v11.2l25.6-11.2h12.3l0.2,1.1L78.1,27.5l28.2,14.8l-0.3,1H89.4z M7.1,43.3L0.8,36h36.9c0.5,0,0.6-0.6,0.7-0.9
			c0.1-0.4,0.2-0.8,0.2-1.1c0-0.3,0-0.9-0.1-1.7l0-0.4H4.1c0-2.3,0.4-4.5,1.2-6.6c0.8-2.2,1.9-4.2,3.3-5.9c1.4-1.7,3.2-3.1,5.2-4.1
			c2-1,4.3-1.5,6.8-1.5h31.4v7.2H20.6l-0.8,0.8c-0.2,0.2-0.4,0.4-0.5,0.6l-0.4,0.5c-0.1,0.2-0.3,0.4-0.5,0.7
			c-0.3,0.6-0.4,0.9-0.4,1.2v0.2L18,25l0.2,0.2h27.5c1,0,1.8,0.3,2.6,0.9c0.8,0.7,1.5,1.4,2.1,2.4c0.6,0.9,1,1.9,1.3,2.9
			c0.3,1,0.5,1.9,0.5,2.6c0,1.1-0.2,2.2-0.7,3.3c-0.4,1.1-1.1,2.1-1.9,3c-0.8,0.9-1.7,1.6-2.8,2.2c-1,0.6-2.1,0.8-3.3,0.8H7.1z
			 M122.5,31.9c-3-0.9-5.2-2-6.7-3.6c-1.1-1-2.1-2.1-3.1-3.4c-1-1.3-1.9-2.6-2.6-4c-0.8-1.3-1.4-2.7-1.9-4c-0.4-1.1-0.6-2.2-0.7-3.2
			h12.2c0.8,2,1.5,3.6,2,4.9c0.6,1.3,2.3,3.7,2.6,4c0.4,0.6,0.9,1.1,1.4,1.7c0.6,0.6,1.1,0.9,1.7,0.9h13.7v6.7H122.5z"/>
	</g>
	<polygon class="st2" points="200.3,1 175.8,1 159.4,13 165.1,40.8 175.3,54.8 200.8,54.8 211.1,40.8 216.7,13 	"/>
	<path class="st3" d="M199.2,15.2C199.2,15.2,199.3,15.1,199.2,15.2L199.2,15.2L199.2,15.2z"/>
	<path class="st0" d="M199.2,16.3C199.2,16.2,199.3,16.2,199.2,16.3L199.2,16.3L199.2,16.3z"/>
	<path d="M207.7,15.9c0,0.3-0.1,0.5-0.2,0.8c0,0.1-0.1,0.1-0.1,0.2l0,0l-0.6,0.5l-14,12c-0.1,0.1-1.5,1.3-4.4,1.3h-0.3h-0.3
		c-2.9,0-4.2-1.2-4.4-1.3l-14-12l-0.6-0.5l0,0c0-0.1-0.1-0.1-0.1-0.2c-0.1-0.2-0.2-0.5-0.2-0.8c0-0.6,0.3-1.1,0.8-1.4l0,0l11.2-9.2
		c0,0-4.5,9.1-4.5,9.1c0,0,10,7.8,10,7.8c0,0,2.2-3.8,2.2-3.8c0,0,2.2,3.8,2.2,3.8c0,0,10-7.8,10-7.8c0,0-4.5-9.1-4.5-9.1l11.2,9.2
		l0,0C207.4,14.8,207.7,15.3,207.7,15.9z M178.7,44.8c-0.5-1.3-0.8-2.8-0.9-4.2c-0.2-3,0.8-5.9,3.4-7c0.3-0.1,0.6-0.2,0.9-0.3h0
		l-11-9.3c0.7,0.8,1.3,1.6,1.7,2.6c0.5,1.2,0.8,2.4,0.8,3.8c0,0.2,0,0.3,0,0.5c0,0,0,0.1,0,0.1c0,0.2,0,0.3,0,0.5c0,0,0,0,0,0
		c-0.3,2.4-1.7,3.3-3.8,4.8c0.1,0.3,0.3,0.5,0.4,0.8c0,0,0.1,0.3,0.2,0.3l0,0c3,6.1,7.5,10.4,10.5,12.1c0.3,0.2,0.6,0.3,0.9,0.5
		c1.5,0.8,2.5,1.1,2.6,1.2l-0.2-0.2C181.8,49.7,179.7,47.3,178.7,44.8z M202.5,30.9c0,0,0-0.1,0-0.1c0-0.2,0-0.3,0-0.5
		c0-1.3,0.3-2.6,0.8-3.8c0.4-0.9,1-1.8,1.7-2.6l-11,9.3h0c0.3,0.1,0.6,0.2,0.9,0.3c2.7,1.1,3.6,4,3.4,7c-0.1,1.5-0.4,2.9-0.9,4.2
		c-1,2.5-3.1,4.8-5.5,6l-0.2,0.2c0.1,0,1.1-0.3,2.6-1.2c0.3-0.2,0.6-0.3,0.9-0.5c3-1.6,7.6-6,10.5-12.1c0,0,0,0,0,0
		c0,0,0.1-0.3,0.2-0.3c0.1-0.3,0.3-0.5,0.4-0.8C204.1,34.5,202.6,33.7,202.5,30.9z"/>
	<g>
		<path class="st4" d="M439.6,37.4c1.6,0,2.9,1.3,2.9,3c0,1.7-1.3,3-2.9,3c-1.6,0-2.9-1.3-2.9-3C436.7,38.7,438,37.4,439.6,37.4
			L439.6,37.4z M439.6,37.9c-1.3,0-2.4,1.1-2.4,2.5c0,1.4,1.1,2.5,2.4,2.5c1.3,0,2.4-1.1,2.4-2.5C442,39,440.9,37.9,439.6,37.9
			L439.6,37.9z M439.1,42.1h-0.5v-3.3c0.3,0,0.5-0.1,0.9-0.1c0.5,0,0.8,0.1,1,0.2c0.2,0.1,0.3,0.4,0.3,0.7c0,0.4-0.3,0.7-0.6,0.8v0
			c0.3,0.1,0.5,0.3,0.6,0.8c0.1,0.5,0.2,0.7,0.2,0.8h-0.6c-0.1-0.1-0.2-0.4-0.2-0.8c-0.1-0.4-0.3-0.6-0.7-0.6h-0.4V42.1z
			 M439.1,40.3h0.4c0.4,0,0.8-0.2,0.8-0.6c0-0.3-0.2-0.6-0.8-0.6c-0.2,0-0.3,0-0.4,0V40.3z"/>
	</g>
</g>
</svg>
